<svg width="27" height="33" viewBox="0 0 35 33" fill="none" xmlns="http://www.w3.org/2000/svg">
<path d="M31.5 6.94737H24.5V3.47368C24.5 2.51842 24.115 1.65 23.4675 1.02474C22.8375 0.382105 21.9625 0 21 0H14C12.075 0 10.5 1.56316 10.5 3.47368V6.94737H3.5C1.575 6.94737 0 8.51053 0 10.4211V29.5263C0 31.4368 1.575 33 3.5 33H31.5C33.425 33 35 31.4368 35 29.5263V10.4211C35 8.51053 33.425 6.94737 31.5 6.94737ZM14 3.47368H21V6.94737H14V3.47368ZM15.75 26.9211L14 25.1842L19.25 19.9737L14 14.7632L15.75 13.0263L22.75 19.9737L15.75 26.9211Z" fill="white"/>
</svg>
